# xmcd
#
# Track frame offsets:
#	150
#	13793
#	31391
#	46353
#	63475
#	84249
#	98156
#	107418
#	122768
#	140838
#	153289
#	168031
#	179242
#	195345
#	208773
#	226088
#	241028
#	252575
#	270489
#	288692
#	305438
#	323390
#	337148
#
# Disc length: 4722 seconds
#
# Revision: 1
# Processed by: cddbd v1.5.1PL0 Copyright (c) Steve Scherf et al.
# Submitted via: audiograbber 1.81.03
#
DISCID=3f127017
DTITLE=Various Artist - This Is Alt Country (Shut Eye Records)
DYEAR=2004
DGENRE=Country
TTITLE0=An American Starlet - Starstruck Brother
TTITLE1=Breathing Machine - A Town Like This
TTITLE2=Mark `Brine - 8th Grade Romance
TTITLE3=Byron `Russel - Pamlico Sound
TTITLE4=Billy Ray Hatley And The Show Dogs - Cold Hard Truth
TTITLE5=Jay `Farrar - No Rolling Back
TTITLE6=The `Swaggerts - Drink Her Out Of My Mind
TTITLE7=Moonshine Sway - Chelsea
TTITLE8=Pannel `Roberts - Lets Go
TTITLE9=Ray `Weaver - Train Whistle Guitar
TTITLE10=Mike `Marinaro - Hidden Places
TTITLE11=Betsie Jane - What Is It
TTITLE12=Jeff `Laine - Son
TTITLE13=Cockfighter - Room For The Night
TTITLE14=Black Eyed Soul - Waste Of Time
TTITLE15=Steven R `Brooks - Sweet Morphine
TTITLE16=Local Boy - Overdriving My Headlights Again
TTITLE17=Scott `Murray - Belgrade Station
TTITLE18=Kim `Richardson - Everybody Screaming
TTITLE19=Jessica `Schultz - 2000 Mile Blues
TTITLE20=Twang Dragons - Closer
TTITLE21=Boll Weevil - One Drink Tonight
TTITLE22=Moore And Moore]p[Shawn `Camp - Theres Enough of Me To Go Around
EXTD=
EXTT0=
EXTT1=
EXTT2=
EXTT3=
EXTT4=
EXTT5=
EXTT6=
EXTT7=
EXTT8=
EXTT9=
EXTT10=
EXTT11=
EXTT12=
EXTT13=
EXTT14=
EXTT15=
EXTT16=
EXTT17=
EXTT18=
EXTT19=
EXTT20=
EXTT21=
EXTT22=
PLAYORDER=
